<svg width="6601" height="5382" viewBox="0 0 6601 5382" fill="none" xmlns="http://www.w3.org/2000/svg">
<path d="M1246.87 4901.67C2471.74 5541.52 4457.5 5541.52 5682.22 4901.67C6906.95 4261.83 6907.09 3224.51 5682.22 2584.66C4457.35 1944.82 2471.74 1944.82 1246.87 2584.66C21.9978 3224.51 21.7055 4261.83 1246.87 4901.67Z" fill="#F5F5F5"/>
<path d="M4541.7 4907.37C4725.89 4995.08 5024.1 4995.08 5208.59 4907.37C5393.07 4819.66 5392.78 4677.28 5208.59 4589.57C5024.4 4501.86 4726.18 4501.86 4541.7 4589.57C4357.22 4677.28 4357.65 4819.66 4541.7 4907.37Z" fill="#E0E0E0"/>
<path d="M685.525 2805.11C685.525 2805.11 687.571 2570.19 566.239 2427.37C444.907 2284.55 298.285 2310.42 245.951 2337.61C193.617 2364.8 158.241 2439.94 248.582 2494.91C338.924 2549.87 529.693 2658.34 561.415 2755.55L685.525 2805.11Z" fill="#3155E7"/>
<path d="M300.916 2363.78C379.124 2386.88 603.37 2512.16 628.952 2748.1" stroke="white" stroke-miterlimit="10" stroke-linecap="round"/>
<path d="M584.073 2700C553.667 2630.86 519.314 2599.72 420.494 2616.24C321.674 2632.76 336.292 2630.86 214.814 2599.28C93.3353 2567.71 10.1569 2618.29 0.654989 2664.92C-8.99312 2715.65 89.9731 2738.01 163.942 2770.9C237.911 2803.79 288.49 2845.89 270.802 2912.41C256.184 2969.42 265.247 3017.66 353.103 3038.27C431.165 3056.69 513.905 3011.67 546.65 3086.37C565.069 3128.91 638.015 3175.39 705.113 3135.63C821.183 3018.68 788.584 2876.59 714.031 2782.89C681.139 2741.37 602.346 2741.52 584.073 2700Z" fill="#3155E7"/>
<path opacity="0.2" d="M584.073 2700C553.667 2630.86 519.314 2599.72 420.494 2616.24C321.674 2632.76 336.292 2630.86 214.814 2599.28C93.3353 2567.71 10.1569 2618.29 0.654989 2664.92C-8.99312 2715.65 89.9731 2738.01 163.942 2770.9C237.911 2803.79 288.49 2845.89 270.802 2912.41C256.184 2969.42 265.247 3017.66 353.103 3038.27C431.165 3056.69 513.905 3011.67 546.65 3086.37C565.069 3128.91 638.015 3175.39 705.113 3135.63C821.183 3018.68 788.584 2876.59 714.031 2782.89C681.139 2741.37 602.346 2741.52 584.073 2700Z" fill="black"/>
<path d="M89.9731 2639.04C216.714 2648.11 587.728 2799.85 682.309 3006.99" stroke="white" stroke-miterlimit="10" stroke-linecap="round"/>
<path d="M359.243 2920.74C411.503 2877.43 475.26 2850.3 542.704 2842.68" stroke="white" stroke-miterlimit="10" stroke-linecap="round"/>
<path d="M1846.22 5027.98C1803.83 5052.39 1712.76 5056.34 1691.71 4982.66C1670.66 4908.98 1675.33 4872.14 1618.61 4859.43C1561.89 4846.71 1455.62 4901.53 1413.96 4819.23C1372.29 4736.92 1457.81 4694.82 1405.33 4649.8C1352.85 4604.77 1256.81 4555.36 1304.61 4496.89C1352.41 4438.42 1414.69 4454.64 1467.61 4474.82C1523.01 4495.72 1607.36 4479.06 1680.01 4484.03C1752.66 4489 1769.04 4546.01 1770.79 4590.3C1772.55 4634.6 1798.13 4685.47 1861.28 4674.07L1846.22 5027.98Z" fill="#3155E7"/>
<path d="M1364.84 4509.02C1535.73 4529.34 1780.29 4729.91 1853.38 4864.54" stroke="white" stroke-miterlimit="10" stroke-linecap="round"/>
<path d="M1695.65 4539.87C1695.65 4539.87 1696.68 4644.1 1680.16 4671.43" stroke="white" stroke-miterlimit="10" stroke-linecap="round"/>
<path d="M1479.74 4755.64C1479.74 4755.64 1602.39 4735.46 1718.16 4704.03" stroke="white" stroke-miterlimit="10" stroke-linecap="round"/>
<path d="M5278.32 2260.14C5360.47 2260.14 5395.26 2236.89 5415.88 2183.54C5436.49 2130.18 5428.59 2075.8 5495.55 2054.75C5562.5 2033.7 5602.41 2046.86 5635.74 1980.34C5669.07 1913.83 5583.4 1832.84 5624.63 1786.65C5665.85 1740.45 5761.31 1694.7 5741.57 1637.54C5728.86 1598.95 5688.36 1584.77 5650.79 1586.96C5626.75 1590.21 5604.05 1599.96 5585.16 1615.18C5564.59 1629.23 5540.33 1636.9 5515.43 1637.25C5491.04 1638.59 5466.59 1637.81 5442.34 1634.91C5425.42 1632.55 5408.18 1634.46 5392.2 1640.47C5364.42 1653.18 5351.85 1687.24 5355.06 1717.5C5359.16 1740.37 5359.16 1763.78 5355.06 1786.65C5347.32 1821 5302.73 1830.5 5278.17 1856.09C5221.31 1914.56 5262.38 2017.91 5267.94 2089.98C5272.03 2139.1 5274.52 2211.46 5278.32 2260.14Z" fill="#3155E7"/>
<path d="M5682.37 1637.54C5614.25 1655.81 5347.17 1879.91 5292.94 2113.08" stroke="white" stroke-miterlimit="10" stroke-linecap="round"/>
<path d="M5426.69 1686.07C5426.69 1686.07 5466.89 1752.44 5465.43 1808.87" stroke="white" stroke-miterlimit="10" stroke-linecap="round"/>
<path d="M5575.07 1941.02C5575.07 1941.02 5451.55 1900.09 5365 1944.53" stroke="white" stroke-miterlimit="10" stroke-linecap="round"/>
<path d="M2228.49 2186.17L2134.93 2176.96V116.502L2228.49 125.566V2186.17Z" fill="#E0E0E0"/>
<path d="M1886.71 851.659L1530.9 1702.59L1297.01 1513.58C1288.64 1506.84 1277.95 1503.69 1267.27 1504.81C1256.58 1505.93 1246.78 1511.24 1240 1519.57C1237.94 1522.25 1236.17 1525.14 1234.74 1528.2L707.306 2685.38V2841.22C707.306 2859.93 720.462 2867.53 736.543 2858.17L943.1 2738.89L2105.7 2067.76C2114.19 2062.17 2121.25 2054.67 2126.33 2045.86C2131.41 2037.06 2134.35 2027.18 2134.93 2017.03V1100.46L1957.47 844.35C1951.38 835.516 1942.03 829.46 1931.47 827.514C1920.92 825.568 1910.03 827.89 1901.19 833.971C1894.72 838.304 1889.68 844.46 1886.71 851.659Z" fill="#E0E0E0"/>
<path d="M817.09 1006.18V1405.99C861.968 1422.36 919.418 1414.61 981.839 1378.5C1125.83 1295.33 1242.63 1093.15 1242.63 926.797C1242.63 849.905 1217.78 794.355 1176.7 764.826L846.327 954.865C837.726 960.478 830.588 968.061 825.503 976.984C820.419 985.908 817.534 995.915 817.09 1006.18Z" fill="#E0E0E0"/>
<path d="M2052.19 893.321L1944.16 831.924V955.742L2052.19 893.321Z" fill="#E0E0E0"/>
<path d="M1400.8 1571.76L1291.16 1509.63L1289.41 1632.72L1400.8 1571.76Z" fill="#E0E0E0"/>
<path d="M2299.39 82.1491C2299.54 80.9357 2299.54 79.708 2299.39 78.4946C2297.76 69.9201 2294.43 61.761 2289.58 54.5031C2284.73 47.2451 2278.47 41.0367 2271.18 36.2475L2219.72 7.01083C2210.66 2.40225 2200.65 0 2190.48 0C2180.32 0 2170.3 2.40225 2161.25 7.01083L682.163 860.284C673.472 865.732 666.285 873.271 661.258 882.211C655.969 891.068 653.049 901.136 652.78 911.448V3125.98C653.361 3136.13 656.307 3146 661.384 3154.81C666.46 3163.62 673.526 3171.12 682.016 3176.71L733.181 3205.94C741.135 3209.98 749.834 3212.33 758.736 3212.86C767.638 3213.38 776.554 3212.08 784.929 3209.01L786.976 3208.28L791.8 3205.94L1442.32 2831.57L2271.03 2353.26C2279.54 2347.68 2286.62 2340.19 2291.69 2331.38C2296.77 2322.57 2299.71 2312.68 2300.27 2302.53V86.827C2299.72 85.3261 2299.43 83.7459 2299.39 82.1491ZM2228.49 2088.96C2227.91 2099.11 2224.96 2108.98 2219.89 2117.79C2214.81 2126.59 2207.75 2134.09 2199.25 2139.68L1443.05 2576.48L846.327 2920.89C830.246 2930.24 817.09 2922.64 817.09 2903.93V1006.18C817.671 996.026 820.618 986.153 825.694 977.346C830.77 968.538 837.836 961.04 846.327 955.449L2199.11 174.245C2215.34 164.743 2228.35 172.344 2228.35 191.056L2228.49 2088.96Z" fill="#F5F5F5"/>
<path d="M1443.05 2576.48C1443.05 2666.09 1442.17 2751.9 1441.73 2830.84L791.508 3206.53L786.684 3208.87L784.637 3209.6C776.262 3212.66 767.346 3213.97 758.444 3213.44C749.541 3212.91 740.843 3210.56 732.888 3206.53L681.724 3177.29C673.233 3171.7 666.168 3164.2 661.091 3155.4C656.015 3146.59 653.068 3136.72 652.487 3126.57V911.448C652.757 901.136 655.677 891.068 660.966 882.211L770.75 945.801L825.861 977.523C820.452 986.335 817.476 996.423 817.236 1006.76V2904.66C817.236 2923.37 830.393 2930.97 846.473 2921.62L1443.05 2576.48Z" fill="#E0E0E0"/>
<path d="M1996.5 913.933L1640.69 1764.43L1406.79 1575.41C1402.65 1572.04 1397.87 1569.53 1392.75 1568.01C1387.62 1566.5 1382.25 1566.01 1376.94 1566.58C1371.62 1567.15 1366.48 1568.77 1361.79 1571.34C1357.1 1573.91 1352.97 1577.38 1349.64 1581.55C1347.55 1584.16 1345.78 1587 1344.37 1590.03L816.944 2747.51V3050.84C816.944 3069.41 830.1 3077.01 846.18 3067.66L1052.74 2948.52L2199.25 2286.3C2207.75 2280.71 2214.81 2273.22 2219.89 2264.41C2224.96 2255.6 2227.91 2245.73 2228.49 2235.58V1171.65L2067.69 906.478C2061.64 897.564 2052.3 891.417 2041.72 889.388C2031.13 887.36 2020.18 889.616 2011.26 895.661C2004.67 900.184 1999.54 906.535 1996.5 913.933Z" fill="#F5F5F5"/>
<path d="M2299.39 82.1491C2299.54 80.9357 2299.54 79.7079 2299.39 78.4945C2295.88 66.2151 2284.77 62.122 2271.18 70.0159L791.508 923.874C782.91 929.35 775.762 936.822 770.672 945.653C765.582 954.485 762.7 964.415 762.271 974.6V3189.28C762.271 3205.21 771.919 3213.11 784.637 3209.31H786.684L791.508 3206.97L1442.32 2831.57L2271.03 2353.26C2279.54 2347.68 2286.62 2340.19 2291.69 2331.38C2296.77 2322.57 2299.71 2312.68 2300.27 2302.53V86.827C2299.72 85.3261 2299.43 83.7459 2299.39 82.1491ZM2228.49 2235.14C2227.91 2245.29 2224.96 2255.16 2219.89 2263.97C2214.81 2272.78 2207.75 2280.27 2199.25 2285.87L1443.05 2722.66L846.327 3067.07C830.246 3076.43 817.09 3068.82 817.09 3050.11V1006.18C817.671 996.026 820.618 986.153 825.694 977.346C830.77 968.538 837.836 961.04 846.327 955.449L2199.11 174.245C2215.34 164.743 2228.35 172.344 2228.35 191.056L2228.49 2235.14Z" fill="#F0F0F0"/>
<path d="M2613.1 2408.07L2519.54 2398.87V338.409L2613.1 347.472V2408.07Z" fill="#E0E0E0"/>
<path d="M2271.32 1073.57L1915.51 1925.23L1681.62 1736.22C1673.24 1729.49 1662.53 1726.37 1651.85 1727.52C1641.16 1728.67 1631.37 1734 1624.61 1742.36C1622.55 1744.98 1620.78 1747.82 1619.34 1750.83L1091.91 2907.15V3062.98C1091.91 3081.69 1105.07 3089.29 1121.15 3079.93L1327.71 2960.65L2490.31 2289.52C2498.81 2283.95 2505.89 2276.45 2510.97 2267.64C2516.05 2258.83 2518.98 2248.95 2519.54 2238.79V1322.22L2342.08 1066.11C2337.95 1060.11 2332.27 1055.34 2325.66 1052.29C2319.04 1049.25 2311.73 1048.04 2304.48 1048.81C2297.24 1049.57 2290.34 1052.27 2284.5 1056.63C2278.67 1060.99 2274.11 1066.84 2271.32 1073.57Z" fill="#E0E0E0"/>
<path d="M1201.7 1228.08V1627.89C1246.58 1644.27 1304.03 1636.52 1366.45 1600.41C1510 1517.23 1626.95 1315.06 1626.95 1148.7C1626.95 1071.81 1602.1 1016.26 1561.02 986.733L1230.64 1176.77C1222.12 1182.44 1215.06 1190.05 1210.03 1198.96C1205 1207.88 1202.15 1217.86 1201.7 1228.08Z" fill="#E0E0E0"/>
<path d="M2436.8 1115.23L2328.77 1053.83V1177.65L2436.8 1115.23Z" fill="#E0E0E0"/>
<path d="M1785.41 1793.67L1675.77 1731.54L1674.02 1854.62L1785.41 1793.67Z" fill="#E0E0E0"/>
<path d="M2683.85 304.056C2684.01 302.842 2684.01 301.614 2683.85 300.401C2682.12 291.942 2678.74 283.908 2673.9 276.759C2669.06 269.61 2662.85 263.486 2655.64 258.739L2604.18 229.502C2595.13 224.893 2585.11 222.491 2574.95 222.491C2564.78 222.491 2554.77 224.893 2545.71 229.502L1066.77 1082.19C1058.11 1087.68 1050.93 1095.21 1045.87 1104.12C1040.62 1112.99 1037.7 1123.05 1037.39 1133.35V3347.89C1037.95 3358.04 1040.88 3367.92 1045.96 3376.74C1051.04 3385.55 1058.12 3393.04 1066.63 3398.61L1117.79 3427.85C1125.73 3431.92 1134.43 3434.29 1143.34 3434.82C1152.25 3435.35 1161.17 3434.02 1169.54 3430.92L1171.58 3430.19L1176.41 3427.85L1826.93 3052.74L2655.64 2574.43C2664.15 2568.86 2671.22 2561.36 2676.3 2552.55C2681.38 2543.74 2684.32 2533.86 2684.88 2523.71V308.733C2684.28 307.241 2683.93 305.661 2683.85 304.056ZM2613.1 2310.86C2612.54 2321.02 2609.6 2330.9 2604.53 2339.71C2599.45 2348.52 2592.37 2356.02 2583.86 2361.59L1827.66 2798.39L1230.94 3142.79C1214.86 3152.15 1201.7 3144.55 1201.7 3125.84V1228.08C1202.29 1217.94 1205.24 1208.07 1210.32 1199.26C1215.39 1190.46 1222.45 1182.95 1230.94 1177.36L2583.72 396.151C2599.94 386.649 2612.95 394.251 2612.95 412.962L2613.1 2310.86Z" fill="#F5F5F5"/>
<path d="M1827.66 2798.39C1827.66 2888 1826.78 2973.81 1826.34 3052.74L1176.12 3428.44L1171.29 3430.77L1169.25 3431.51C1160.88 3434.6 1151.96 3435.93 1143.05 3435.4C1134.14 3434.87 1125.44 3432.5 1117.5 3428.44L1066.33 3399.2C1057.83 3393.63 1050.75 3386.13 1045.67 3377.32C1040.59 3368.51 1037.65 3358.63 1037.1 3348.47V1133.35C1037.41 1123.05 1040.33 1112.99 1045.57 1104.12L1155.36 1167.56L1210.47 1199.28C1205.11 1208.12 1202.14 1218.19 1201.84 1228.52V3125.84C1201.84 3144.55 1215 3152.15 1231.08 3142.79L1827.66 2798.39Z" fill="#E0E0E0"/>
<path d="M2381.11 1135.84L2025.3 1986.77L1791.4 1797.76C1783 1791.03 1772.27 1787.9 1761.56 1789.05C1750.85 1790.2 1741.03 1795.54 1734.25 1803.9C1732.22 1806.55 1730.46 1809.39 1728.98 1812.38L1201.55 2969.42V3272.02C1201.55 3290.58 1214.71 3298.19 1230.79 3288.83L1436.91 3169.69L2583.43 2507.48C2591.93 2501.91 2599.01 2494.41 2604.09 2485.6C2609.17 2476.79 2612.1 2466.91 2612.66 2456.75V1393.56L2451.86 1128.38C2445.79 1119.49 2436.43 1113.38 2425.85 1111.38C2415.27 1109.37 2404.33 1111.65 2395.43 1117.71C2389.04 1122.28 2384.07 1128.56 2381.11 1135.84Z" fill="#F5F5F5"/>
<path d="M2683.85 304.056C2684.01 302.842 2684.01 301.614 2683.85 300.401C2680.34 288.122 2669.23 284.028 2655.64 291.922L1176.12 1145.78C1167.54 1151.28 1160.42 1158.76 1155.33 1167.59C1150.24 1176.41 1147.34 1186.33 1146.88 1196.51V3411.19C1146.88 3427.12 1156.53 3435.01 1169.25 3431.21H1171.29L1176.12 3428.87L1826.93 3053.47L2655.64 2575.16C2664.15 2569.59 2671.22 2562.09 2676.3 2553.28C2681.38 2544.47 2684.32 2534.59 2684.88 2524.44V308.733C2684.28 307.241 2683.93 305.661 2683.85 304.056ZM2613.1 2457.05C2612.54 2467.2 2609.6 2477.08 2604.53 2485.89C2599.45 2494.7 2592.37 2502.2 2583.86 2507.77L1827.66 2944.57L1230.94 3288.98C1214.86 3298.33 1201.7 3290.73 1201.7 3272.02V1228.08C1202.29 1217.94 1205.24 1208.07 1210.32 1199.26C1215.39 1190.46 1222.45 1182.95 1230.94 1177.36L2583.72 396.151C2599.94 386.649 2612.95 394.251 2612.95 412.962L2613.1 2457.05Z" fill="#F0F0F0"/>
<path d="M2997.86 2629.84L2904.3 2620.63V560.169L2997.86 569.233V2629.84Z" fill="#263238"/>
<path d="M2656.08 1295.33L2300.27 2146.26L2066.37 1957.25C2058.01 1950.51 2047.31 1947.35 2036.63 1948.48C2025.95 1949.6 2016.14 1954.91 2009.36 1963.24C2007.3 1965.92 2005.54 1968.81 2004.1 1971.86L1476.67 3128.91V3284.74C1476.67 3303.45 1489.83 3311.05 1505.91 3301.7L1712.46 3182.41L2875.06 2511.28C2883.57 2505.71 2890.65 2498.21 2895.72 2489.4C2900.8 2480.59 2903.74 2470.71 2904.3 2460.55V1543.98L2726.83 1287.87C2722.7 1281.87 2717.03 1277.1 2710.41 1274.05C2703.8 1271.01 2696.48 1269.81 2689.24 1270.57C2682 1271.33 2675.09 1274.03 2669.26 1278.39C2663.42 1282.75 2658.87 1288.6 2656.08 1295.33Z" fill="#3155E7"/>
<path d="M1586.45 1449.84V1849.65C1631.33 1866.03 1688.78 1858.28 1751.2 1822.17C1895.19 1738.99 2011.99 1536.82 2011.99 1370.46C2011.99 1293.57 1987.14 1238.02 1946.07 1208.49L1615.69 1398.53C1607.1 1404.15 1599.97 1411.74 1594.88 1420.66C1589.8 1429.58 1586.91 1439.58 1586.45 1449.84Z" fill="#3155E7"/>
<path opacity="0.5" d="M2656.08 1295.33L2300.27 2146.26L2066.37 1957.25C2058.01 1950.51 2047.31 1947.35 2036.63 1948.48C2025.95 1949.6 2016.14 1954.91 2009.36 1963.24C2007.3 1965.92 2005.54 1968.81 2004.1 1971.86L1476.67 3128.91V3284.74C1476.67 3303.45 1489.83 3311.05 1505.91 3301.7L1712.46 3182.41L2875.06 2511.28C2883.57 2505.71 2890.65 2498.21 2895.72 2489.4C2900.8 2480.59 2903.74 2470.71 2904.3 2460.55V1543.98L2726.83 1287.87C2722.7 1281.87 2717.03 1277.1 2710.41 1274.05C2703.8 1271.01 2696.48 1269.81 2689.24 1270.57C2682 1271.33 2675.09 1274.03 2669.26 1278.39C2663.42 1282.75 2658.87 1288.6 2656.08 1295.33Z" fill="white"/>
<path d="M2821.56 1336.99L2713.53 1275.59V1399.41L2821.56 1336.99Z" fill="#3155E7"/>
<path d="M2170.16 2015.43L2060.53 1953.3L2058.77 2076.38L2170.16 2015.43Z" fill="#3155E7"/>
<path opacity="0.5" d="M2821.56 1336.99L2713.53 1275.59V1399.41L2821.56 1336.99Z" fill="white"/>
<path opacity="0.5" d="M2170.16 2015.43L2060.53 1953.3L2058.77 2076.38L2170.16 2015.43Z" fill="white"/>
<path d="M3068.61 525.816C3068.76 524.603 3068.76 523.375 3068.61 522.162C3066.95 513.598 3063.6 505.452 3058.75 498.198C3053.91 490.944 3047.67 484.728 3040.39 479.915L2988.94 450.678C2979.88 446.069 2969.86 443.667 2959.7 443.667C2949.54 443.667 2939.52 446.069 2930.46 450.678L1451.53 1303.95C1442.84 1309.4 1435.65 1316.94 1430.62 1325.88C1425.36 1334.75 1422.44 1344.81 1422.14 1355.12V3569.65C1422.7 3579.8 1425.64 3589.68 1430.72 3598.5C1435.8 3607.31 1442.87 3614.8 1451.38 3620.37L1502.54 3649.61C1510.5 3653.64 1519.2 3656 1528.1 3656.52C1537 3657.05 1545.92 3655.74 1554.29 3652.68L1556.34 3651.95L1561.16 3649.61L2211.68 3274.5L3040.39 2796.19C3048.9 2790.62 3055.98 2783.12 3061.06 2774.31C3066.14 2765.5 3069.07 2755.62 3069.63 2745.47V530.494C3069.04 529.002 3068.69 527.421 3068.61 525.816ZM2997.86 2532.62C2997.3 2542.78 2994.36 2552.66 2989.28 2561.47C2984.2 2570.28 2977.13 2577.78 2968.62 2583.35L2212.41 3020.15L1615.69 3364.55C1599.61 3373.91 1586.45 3366.31 1586.45 3347.6V1449.84C1587.03 1439.69 1589.98 1429.82 1595.06 1421.01C1600.13 1412.21 1607.2 1404.71 1615.69 1399.12L2968.47 617.912C2984.7 608.41 2997.71 616.011 2997.71 634.723L2997.86 2532.62Z" fill="#455A64"/>
<path d="M2212.41 3020.15C2212.41 3109.76 2211.53 3195.57 2211.1 3274.5L1560.87 3650.2L1556.05 3652.54H1554C1545.63 3655.6 1536.71 3656.91 1527.81 3656.38C1518.91 3655.85 1510.21 3653.5 1502.25 3649.47L1451.09 3620.23C1442.58 3614.66 1435.5 3607.16 1430.42 3598.35C1425.35 3589.54 1422.41 3579.66 1421.85 3569.5V1355.12C1422.15 1344.81 1425.06 1334.74 1430.33 1325.88L1540.11 1389.32L1595.22 1421.04C1589.82 1429.86 1586.84 1439.94 1586.6 1450.28V3347.6C1586.6 3366.31 1599.76 3373.91 1615.84 3364.55L2212.41 3020.15Z" fill="#263238"/>
<path opacity="0.7" d="M1586.45 1449.84V1849.65C1631.33 1866.03 1688.78 1858.28 1751.2 1822.17C1895.19 1738.99 2011.99 1536.82 2011.99 1370.46C2011.99 1293.57 1987.14 1238.02 1946.07 1208.49L1615.69 1398.53C1607.1 1404.15 1599.97 1411.74 1594.88 1420.66C1589.8 1429.58 1586.91 1439.58 1586.45 1449.84Z" fill="white"/>
<path d="M2765.86 1357.6L2410.05 2208.53L2176.16 2019.52C2172 2016.17 2167.23 2013.67 2162.11 2012.16C2156.98 2010.66 2151.61 2010.18 2146.31 2010.75C2141 2011.32 2135.86 2012.93 2131.17 2015.49C2126.48 2018.05 2122.35 2021.5 2119 2025.66C2116.94 2028.28 2115.18 2031.13 2113.74 2034.14L1586.31 3191.18V3493.78C1586.31 3512.35 1599.46 3519.95 1615.54 3510.59L1822.1 3391.45L2968.62 2729.24C2977.11 2723.65 2984.17 2716.15 2989.25 2707.34C2994.33 2698.54 2997.27 2688.66 2997.86 2678.51V1615.32L2837.05 1350.15C2832.92 1344.08 2827.22 1339.24 2820.56 1336.15C2813.9 1333.06 2806.53 1331.84 2799.23 1332.6C2791.93 1333.37 2784.97 1336.09 2779.1 1340.5C2773.22 1344.9 2768.65 1350.81 2765.86 1357.6Z" fill="#3155E7"/>
<path d="M3068.61 525.816C3068.76 524.603 3068.76 523.375 3068.61 522.161C3065.1 509.882 3053.99 505.789 3040.39 513.683L1560.87 1367.54C1552.29 1373.04 1545.16 1380.51 1540.07 1389.34C1534.98 1398.17 1532.09 1408.09 1531.63 1418.27V3632.95C1531.63 3648.88 1541.28 3656.77 1554 3652.97L1556.05 3652.24L1560.87 3649.9L2211.68 3274.5L3040.39 2796.19C3048.9 2790.62 3055.98 2783.12 3061.06 2774.31C3066.14 2765.5 3069.07 2755.62 3069.63 2745.47V530.494C3069.04 529.001 3068.69 527.421 3068.61 525.816ZM2997.86 2678.81C2997.3 2688.96 2994.36 2698.84 2989.28 2707.65C2984.2 2716.46 2977.13 2723.96 2968.62 2729.53L2212.41 3166.33L1615.69 3510.74C1599.61 3520.09 1586.45 3512.49 1586.45 3493.78V1449.84C1587.03 1439.69 1589.98 1429.82 1595.06 1421.01C1600.13 1412.21 1607.2 1404.71 1615.69 1399.12L2968.47 617.912C2984.7 608.41 2997.71 616.011 2997.71 634.723L2997.86 2678.81Z" fill="#37474F"/>
<path d="M1933.93 4085.38V5038.94C1933.93 5063.06 1948.55 5074.17 1968.87 5066.71C1956.49 5071.61 1943.22 5073.84 1929.92 5073.26C1916.62 5072.68 1903.59 5069.3 1891.68 5063.35L1857.33 5043.47C1845.07 5035.44 1834.87 5024.65 1827.56 5011.95C1820.25 4999.25 1816.02 4985.01 1815.23 4970.38V4016.82C1815.8 4002.13 1820.02 3987.82 1827.51 3975.16L1946.36 4043.72C1938.7 4056.31 1934.42 4070.66 1933.93 4085.38Z" fill="#263238"/>
<path d="M3553.64 2963.86C3566.72 2957.24 3581.16 2953.78 3595.82 2953.78C3610.47 2953.78 3624.92 2957.24 3637.99 2963.86L3672.49 2983.75C3683.61 2991.08 3693.06 3000.67 3700.21 3011.91C3707.37 3023.15 3712.07 3035.77 3714.01 3048.94C3710.65 3027.89 3693.25 3020.44 3672.49 3032.42L1975.45 4011.85C1963.21 4019.69 1953.15 4030.51 1946.21 4043.28L1827.36 3974.72C1834.39 3962.01 1844.43 3951.22 1856.6 3943.29L3553.64 2963.86Z" fill="#455A64"/>
<path d="M1933.93 4085.38V5038.94C1933.93 5065.84 1952.79 5076.8 1976.18 5063.35L3673.22 4083.92C3685.48 4075.9 3695.68 4065.1 3702.99 4052.4C3710.31 4039.7 3714.53 4025.46 3715.32 4010.83V3056.84C3715.32 3029.94 3696.47 3019.12 3673.22 3032.57L1976.18 4012C1963.83 4020.01 1953.56 4030.85 1946.22 4043.6C1938.87 4056.36 1934.66 4070.68 1933.93 4085.38Z" fill="#37474F"/>
<path d="M3451.75 3205.65C3466.37 3197.47 3477.04 3204.04 3477.04 3220.27V4121.64C3476.58 4130.42 3474.05 4138.97 3469.65 4146.6C3465.26 4154.22 3459.13 4160.69 3451.75 4165.49L2196.04 4890.56C2181.42 4898.6 2170.75 4892.02 2170.75 4875.94V3974.43C2171.21 3965.65 2173.74 3957.09 2178.14 3949.47C2182.53 3941.85 2188.67 3935.38 2196.04 3930.58L3451.75 3205.65Z" fill="#F5F5F5"/>
<path d="M1997.52 4525.1C1997.81 4519.98 1999.28 4514.99 2001.82 4510.53C2004.35 4506.07 2007.89 4502.25 2012.14 4499.38C2020.33 4494.7 2026.76 4498.5 2026.76 4508C2026.47 4513.13 2025 4518.11 2022.46 4522.58C2019.93 4527.04 2016.39 4530.86 2012.14 4533.73C2004.25 4538.41 1997.52 4534.61 1997.52 4525.1Z" fill="#263238"/>
<path d="M3537.42 3635.58C3538.38 3615.11 3544.18 3595.17 3554.34 3577.38C3564.51 3559.59 3578.75 3544.47 3595.89 3533.25C3628.2 3514.54 3654.37 3529.74 3654.37 3567.16C3653.26 3587.48 3647.39 3607.24 3637.23 3624.87C3627.07 3642.49 3612.91 3657.48 3595.89 3668.62C3563.59 3688.64 3537.42 3673.44 3537.42 3635.58Z" fill="#263238"/>
<path d="M2058.04 4328.34C2058.55 4318.07 2061.45 4308.07 2066.53 4299.13C2071.61 4290.19 2078.72 4282.57 2087.28 4276.89C2103.65 4267.38 2116.52 4275.13 2116.52 4293.99C2116.01 4304.26 2113.1 4314.26 2108.03 4323.2C2102.95 4332.14 2095.84 4339.76 2087.28 4345.45C2071.34 4354.95 2058.04 4347.2 2058.04 4328.34Z" fill="#263238"/>
<path d="M2088.89 4394.42C2099.7 4387.98 2108.62 4394.42 2108.62 4407.28V4632.84C2108.32 4639.93 2106.39 4646.85 2102.96 4653.07C2099.54 4659.28 2094.72 4664.62 2088.89 4668.66C2077.92 4674.94 2069.01 4668.66 2069.01 4655.65V4430.23C2069.23 4423.11 2071.15 4416.14 2074.61 4409.91C2078.06 4403.68 2082.96 4398.37 2088.89 4394.42Z" fill="#263238"/>
<path d="M2170.75 3974.43V4169.73C2197.94 4188.74 2237.12 4188.01 2280.68 4162.72C2362.69 4115.5 2429.2 4000.31 2429.2 3905.58C2429.2 3863.92 2416.19 3832.49 2394.85 3815.82L2196.04 3930.58C2188.66 3935.37 2182.52 3941.84 2178.12 3949.46C2173.73 3957.09 2171.2 3965.64 2170.75 3974.43Z" fill="#3155E7"/>
<path opacity="0.7" d="M2170.75 3974.43V4169.73C2197.94 4188.74 2237.12 4188.01 2280.68 4162.72C2362.69 4115.5 2429.2 4000.31 2429.2 3905.58C2429.2 3863.92 2416.19 3832.49 2394.85 3815.82L2196.04 3930.58C2188.66 3935.37 2182.52 3941.84 2178.12 3949.46C2173.73 3957.09 2171.2 3965.64 2170.75 3974.43Z" fill="white"/>
<path d="M3477.04 3799.6L3262.89 3539.53C3261.48 3537.1 3259.61 3534.96 3257.37 3533.26C3255.13 3531.56 3252.57 3530.33 3249.84 3529.63C3247.12 3528.94 3244.28 3528.8 3241.5 3529.22C3238.72 3529.64 3236.05 3530.61 3233.65 3532.08C3228.94 3534.88 3225.48 3539.38 3224 3544.65L2942.6 4162.72L2677.27 4009.66C2668.61 4004.85 2658.49 4003.39 2648.81 4005.54C2639.14 4007.7 2630.6 4013.32 2624.79 4021.36L2170.75 4676.55V4875.8C2170.75 4892.02 2182.01 4898.6 2196.04 4890.42L3451.75 4165.35C3459.13 4160.55 3465.26 4154.07 3469.65 4146.45C3474.05 4138.83 3476.58 4130.28 3477.04 4121.49V3799.89V3799.6Z" fill="#3155E7"/>
<path d="M2253.78 4128.51V3991.39L2372.48 3922.83" stroke="white" stroke-width="1.5" stroke-linecap="round" stroke-linejoin="round"/>
<path d="M2253.78 4635.47V4772.59L2372.48 4704.03" stroke="white" stroke-width="1.5" stroke-linecap="round" stroke-linejoin="round"/>
<path d="M3278.24 3403.15L3396.94 3334.59V3471.71" stroke="white" stroke-width="1.5" stroke-linecap="round" stroke-linejoin="round"/>
<path d="M3396.94 3977.21V4114.33L3278.24 4182.89" stroke="white" stroke-width="1.5" stroke-linecap="round" stroke-linejoin="round"/>
<path d="M4014.71 1741.33C4014.71 1929.62 3883.14 2158.39 3719.71 2252.97C3651.88 2292.15 3589.61 2301.8 3539.9 2286.16C3501.31 2250.93 3478.36 2191.87 3478.36 2113.52C3478.36 1925.52 3609.93 1696.6 3773.51 1601.87C3841.19 1562.84 3903.61 1553.19 3953.46 1568.84C3991.9 1604.36 4014.71 1663.12 4014.71 1741.33Z" fill="#3155E7"/>
<path d="M4068.21 1772.47C4068.21 1960.61 3936.65 2189.24 3773.21 2283.38C3692.81 2329.72 3620.01 2334.84 3566.8 2305.45L3562.42 2302.97C3554.23 2297.98 3546.59 2292.15 3539.61 2285.57C3501.02 2250.34 3478.07 2191.28 3478.07 2112.93C3478.07 1924.94 3609.63 1696.02 3773.21 1601.29C3840.9 1562.26 3903.32 1552.61 3953.16 1568.25C3961.47 1570.74 3969.51 1574.07 3977.14 1578.19L3978.45 1578.92L3986.79 1583.75C4037.51 1616.49 4068.21 1681.25 4068.21 1772.47Z" fill="#3155E7"/>
<path d="M3932.26 1552.9L3923.34 1547.78C3870.57 1520.01 3798.8 1525.57 3719.86 1571.17C3556.57 1665.17 3425 1893.95 3425 2082.09C3424.59 2113.4 3428.93 2144.6 3437.87 2174.62C3447.32 2207.1 3465.7 2236.28 3490.93 2258.82C3496.6 2263.66 3502.66 2268.02 3509.06 2271.83H3510.08L3511.4 2272.71L3516.37 2275.49L3562.56 2302.24C3554.38 2297.25 3546.74 2291.42 3539.76 2284.84C3501.17 2249.61 3478.21 2190.55 3478.21 2112.2C3478.21 1924.21 3609.78 1695.28 3773.36 1600.56C3841.04 1561.53 3903.46 1551.88 3953.31 1567.52C3961.62 1570.01 3969.65 1573.34 3977.28 1577.46L3932.26 1552.9Z" fill="#455A64"/>
<path d="M3490.64 2258.82C3496.3 2263.66 3502.37 2268.02 3508.77 2271.83L3404.25 2211.46H3403.08C3350.6 2180.32 3318 2114.54 3318 2021.42C3318 1833.43 3449.56 1604.5 3613 1509.78C3652.59 1485.13 3697.95 1471.27 3744.56 1469.58C3771.52 1469.21 3798.09 1475.96 3821.6 1489.17L3923.93 1547.64C3871.16 1519.86 3799.38 1525.42 3720.44 1571.03C3556.57 1665.17 3425 1893.95 3425 2082.09C3424.59 2113.4 3428.93 2144.6 3437.87 2174.62C3447.02 2207.17 3465.34 2236.4 3490.64 2258.82Z" fill="#263238"/>
<path d="M4389.81 1958.27C4389.81 2146.41 4258.25 2375.04 4094.82 2469.91C4055.23 2494.6 4009.87 2508.51 3963.25 2510.26C3936.51 2510.53 3910.16 2503.83 3886.8 2490.81L3567.09 2305.31L3562.71 2302.82C3554.52 2297.83 3546.88 2292 3539.9 2285.43C3501.31 2250.2 3478.36 2191.14 3478.36 2112.78C3478.36 1924.79 3609.93 1695.87 3773.51 1601.14C3841.19 1562.11 3903.61 1552.46 3953.46 1568.1C3961.77 1570.59 3969.8 1573.92 3977.43 1578.04L3978.75 1578.78L3987.08 1583.6L4303.57 1766.18C4357.07 1797.76 4389.81 1863.98 4389.81 1958.27Z" fill="#263238"/>
<path d="M4216.59 2954.66C4153.44 2981.26 4064.56 2977.9 4007.69 2945.15L3807.27 2829.52C3774 2807.81 3746.31 2778.56 3726.45 2744.14C3706.58 2709.73 3695.11 2671.12 3692.96 2631.44V2090.56C3693.05 2076.33 3694.77 2062.16 3698.07 2048.32C3699.1 2043.49 3700.41 2038.82 3701.88 2033.7V2032.38C3703.19 2028 3704.65 2023.76 3706.26 2019.37C3707.87 2014.99 3710.65 2008.12 3713.13 2002.56L3718.54 1991.16L3724.68 1980.05L3726 1977.42L4155.19 2225.93C4134.53 2260.01 4122.95 2298.81 4121.57 2338.64V2879.52C4122.01 2944.28 4162.94 2974.83 4216.59 2954.66Z" fill="#263238"/>
<path d="M5302.15 1656.69V2197.57C5300.05 2237.26 5288.6 2275.89 5268.73 2310.31C5248.87 2344.74 5221.15 2373.98 5187.83 2395.65L4236.47 2945.01L4233.98 2946.32C4232.11 2947.49 4230.16 2948.52 4228.14 2949.39L4221.7 2952.46L4216.59 2954.51C4162.94 2974.68 4122.01 2944.13 4122.01 2879.08V2338.2C4124.23 2298.52 4135.75 2259.93 4155.64 2225.52C4175.52 2191.12 4203.21 2161.86 4236.47 2140.12C4290.47 2107.78 4336.62 2063.86 4371.6 2011.54C4406.59 1959.21 4429.53 1899.78 4438.79 1837.52C4442.39 1817.59 4449.67 1798.5 4460.28 1781.24C4470.33 1764.08 4484.3 1749.55 4501.06 1738.85L4708.49 1618.98C4714.64 1614.73 4721.8 1612.19 4729.24 1611.6C4736.68 1611 4744.15 1612.39 4750.89 1615.61L4754.98 1617.95C4766.1 1626.07 4774.84 1637.02 4780.27 1649.67C4788.65 1666.5 4800.26 1681.52 4814.44 1693.86C4828.62 1706.2 4845.09 1715.62 4862.92 1721.6C4880.74 1727.57 4899.57 1729.97 4918.32 1728.67C4937.07 1727.36 4955.38 1722.38 4972.21 1714L4979.96 1709.76L5187.68 1590.03C5247.91 1555.24 5297.18 1580.38 5301.71 1646.02C5302 1650.11 5302.15 1653.48 5302.15 1656.69Z" fill="#37474F"/>
<path d="M4229.01 1648.51L4030.79 1534.04C4020.12 1551.27 4012.83 1570.37 4009.3 1590.32C3999.94 1652.45 3976.95 1711.74 3941.97 1763.93C3906.99 1816.12 3860.89 1859.93 3806.98 1892.19C3773.22 1913.26 3745.4 1942.6 3726.14 1977.42L4155.34 2225.93C4174.47 2190.98 4202.32 2161.57 4236.18 2140.56C4290.27 2108.19 4336.51 2064.22 4371.55 2011.82C4406.59 1959.41 4429.55 1899.88 4438.79 1837.52C4442.39 1817.59 4449.67 1798.5 4460.28 1781.24L4229.01 1648.51Z" fill="#37474F"/>
<path d="M5187.83 1458.61L4987.41 1342.98C4952 1324.96 4912.83 1315.56 4873.1 1315.56C4833.36 1315.56 4794.19 1324.96 4758.78 1342.98L4550.62 1462.56C4538.37 1469.72 4525.11 1475 4511.29 1478.2L4517.58 1481.71L4750.3 1616.2L4754.4 1618.54C4765.52 1626.65 4774.25 1637.61 4779.69 1650.26C4788.06 1667.09 4799.67 1682.1 4813.85 1694.44C4828.03 1706.78 4844.51 1716.21 4862.33 1722.18C4880.15 1728.15 4898.98 1730.56 4917.73 1729.25C4936.49 1727.95 4954.8 1722.96 4971.62 1714.58L4979.37 1710.34L5187.1 1590.62C5247.33 1555.83 5296.59 1580.97 5301.12 1646.61C5297.64 1608.75 5285.64 1572.18 5266.02 1539.63C5246.4 1507.07 5219.67 1479.38 5187.83 1458.61Z" fill="#37474F"/>
<path d="M4518.16 1481.71L4511.88 1478.2L4325.35 1370.46L4321.69 1368.42C4314.98 1365.19 4307.54 1363.8 4300.12 1364.4C4292.69 1364.99 4285.56 1367.53 4279.45 1371.78L4071.87 1491.5C4055.07 1502.23 4041.09 1516.81 4031.08 1534.04L4229.01 1648.51L4459.84 1781.82C4469.89 1764.67 4483.87 1750.14 4500.62 1739.43L4708.06 1619.56C4714.2 1615.32 4721.36 1612.77 4728.8 1612.18C4736.25 1611.59 4743.71 1612.98 4750.45 1616.2L4518.16 1481.71Z" fill="#455A64"/>
<path d="M4540.53 1778.17L4697.82 1687.39C4713.61 1678.18 4727.06 1685.64 4727.06 1703.76V1792.64C4726.47 1802.63 4723.51 1812.34 4718.43 1820.95C4713.35 1829.57 4706.28 1836.85 4697.82 1842.2L4540.53 1932.98C4524.74 1942.19 4511.29 1934.73 4511.29 1916.61V1827.73C4511.94 1817.75 4514.92 1808.07 4520 1799.46C4525.08 1790.85 4532.11 1783.56 4540.53 1778.17Z" fill="#E0E0E0"/>
<path d="M3947.76 1935.02C3925.54 1947.74 3928.02 1969.96 3953.16 1984.58L4022.6 2024.64C4035.66 2031.91 4050.26 2035.99 4065.19 2036.54C4080.13 2037.1 4094.99 2034.12 4108.56 2027.85C4130.92 2015.13 4128.44 1992.91 4103.15 1978.3L4033.71 1938.09C4020.63 1930.88 4006.03 1926.85 3991.1 1926.31C3976.17 1925.78 3961.32 1928.76 3947.76 1935.02Z" fill="#263238"/>
<path d="M3947.76 1918.51C3925.54 1931.22 3928.02 1953.59 3953.16 1968.06L4022.6 2008.26C4035.69 2015.48 4050.28 2019.51 4065.21 2020.05C4080.14 2020.58 4094.99 2017.59 4108.56 2011.33C4130.92 1998.62 4128.44 1976.4 4103.15 1961.78L4033.71 1921.72C4020.65 1914.45 4006.06 1910.37 3991.12 1909.81C3976.18 1909.25 3961.32 1912.23 3947.76 1918.51Z" fill="#455A64"/>
<path d="M4891.52 1582.58L4870.9 1577.31L4823.54 1549.98C4813.69 1544.55 4802.7 1541.49 4791.46 1541.06C4780.21 1540.63 4769.02 1542.83 4758.78 1547.49H4757.9L4747.23 1544.72V1563.72C4747.86 1568.22 4749.63 1572.49 4752.36 1576.13C4755.1 1579.76 4758.72 1582.63 4762.87 1584.48L4815.21 1614.59C4825.1 1619.98 4836.11 1623.01 4847.37 1623.44C4858.63 1623.87 4869.84 1621.69 4880.11 1617.08C4883.3 1615.62 4886.03 1613.33 4888.01 1610.45C4889.99 1607.57 4891.16 1604.2 4891.37 1600.7V1582.58H4891.52Z" fill="#263238"/>
<path d="M4758.78 1529.22C4741.97 1539.01 4744.16 1555.68 4762.87 1566.64L4815.21 1596.9C4825.08 1602.37 4836.09 1605.44 4847.37 1605.87C4858.64 1606.3 4869.86 1604.08 4880.11 1599.39C4896.78 1589.74 4894.73 1572.93 4875.87 1561.96L4823.54 1531.7C4813.69 1526.27 4802.7 1523.22 4791.46 1522.79C4780.21 1522.36 4769.02 1524.56 4758.78 1529.22Z" fill="#455A64"/>
<path d="M5074.98 1425.87C5045.59 1411.16 5013.18 1403.51 4980.32 1403.51C4947.46 1403.51 4915.06 1411.16 4885.67 1425.87H4845.47V1481.27C4845.47 1501.3 4858.63 1521.18 4884.94 1536.38C4914.5 1551.37 4947.18 1559.18 4980.32 1559.18C5013.47 1559.18 5046.15 1551.37 5075.71 1536.38C5102.02 1521.76 5115.18 1501.3 5115.18 1481.27V1425.87H5074.98Z" fill="#263238"/>
<path d="M4884.94 1370.9C4832.31 1401.31 4832.31 1450.57 4884.94 1480.98C4914.5 1495.97 4947.18 1503.78 4980.32 1503.78C5013.47 1503.78 5046.15 1495.97 5075.71 1480.98C5128.33 1450.57 5128.33 1401.31 5075.71 1370.9C5046.15 1355.92 5013.47 1348.1 4980.32 1348.1C4947.18 1348.1 4914.5 1355.92 4884.94 1370.9Z" fill="#455A64"/>
<path d="M4684.37 1493.7C4676.31 1489.8 4667.46 1487.78 4658.5 1487.78C4649.54 1487.78 4640.69 1489.8 4632.63 1493.7H4620.49V1509.48C4620.78 1512.85 4621.96 1516.07 4623.91 1518.82C4625.86 1521.58 4628.52 1523.75 4631.6 1525.13C4639.93 1529.31 4649.11 1531.48 4658.43 1531.48C4667.74 1531.48 4676.93 1529.31 4685.25 1525.13C4688.32 1523.78 4690.97 1521.63 4692.93 1518.9C4694.88 1516.17 4696.07 1512.97 4696.36 1509.63V1493.7H4684.37Z" fill="#263238"/>
<path d="M4803.66 1447.65V1431.72H4791.67C4783.6 1427.82 4774.76 1425.79 4765.8 1425.79C4756.84 1425.79 4747.99 1427.82 4739.92 1431.72H4727.79V1447.65C4728.07 1451 4729.25 1454.2 4731.2 1456.93C4733.16 1459.66 4735.82 1461.81 4738.9 1463.14C4747.23 1467.32 4756.41 1469.5 4765.73 1469.5C4775.04 1469.5 4784.23 1467.32 4792.55 1463.14C4795.63 1461.81 4798.29 1459.66 4800.25 1456.93C4802.2 1454.2 4803.38 1451 4803.66 1447.65Z" fill="#263238"/>
<path d="M4631.6 1478.2C4628.37 1479.3 4625.56 1481.39 4623.57 1484.17C4621.59 1486.95 4620.52 1490.28 4620.52 1493.7C4620.52 1497.11 4621.59 1500.44 4623.57 1503.22C4625.56 1506 4628.37 1508.09 4631.6 1509.19C4639.93 1513.37 4649.11 1515.55 4658.43 1515.55C4667.74 1515.55 4676.93 1513.37 4685.25 1509.19C4688.49 1508.09 4691.29 1506 4693.28 1503.22C4695.27 1500.44 4696.34 1497.11 4696.34 1493.7C4696.34 1490.28 4695.27 1486.95 4693.28 1484.17C4691.29 1481.39 4688.49 1479.3 4685.25 1478.2C4676.96 1473.92 4667.76 1471.69 4658.43 1471.69C4649.09 1471.69 4639.9 1473.92 4631.6 1478.2Z" fill="#455A64"/>
<path d="M4738.9 1416.22C4735.67 1417.32 4732.86 1419.41 4730.87 1422.19C4728.88 1424.97 4727.82 1428.3 4727.82 1431.72C4727.82 1435.13 4728.88 1438.46 4730.87 1441.24C4732.86 1444.02 4735.67 1446.11 4738.9 1447.21C4747.23 1451.39 4756.41 1453.57 4765.73 1453.57C4775.04 1453.57 4784.23 1451.39 4792.55 1447.21C4795.78 1446.11 4798.59 1444.02 4800.58 1441.24C4802.57 1438.46 4803.64 1435.13 4803.64 1431.72C4803.64 1428.3 4802.57 1424.97 4800.58 1422.19C4798.59 1419.41 4795.78 1417.32 4792.55 1416.22C4784.23 1412.04 4775.04 1409.86 4765.73 1409.86C4756.41 1409.86 4747.23 1412.04 4738.9 1416.22Z" fill="#455A64"/>
<path d="M5158.16 2063.67C5168.25 2045.31 5173.81 2024.81 5174.38 2003.88C5174.94 1995.94 5173.75 1987.98 5170.9 1980.55C5168.04 1973.13 5163.59 1966.42 5157.86 1960.9L5201.72 1885.47C5221.45 1900.09 5232.27 1927.13 5232.27 1962.95C5230.88 2006.24 5218.83 2048.52 5197.19 2086.03L5158.16 2063.67Z" fill="#263238"/>
<path d="M5044.72 2206.93C5035.83 2207 5027.03 2205.26 5018.84 2201.81L5062.7 2126.53C5067.13 2127.98 5071.77 2128.72 5076.44 2128.72C5087.62 2128.38 5098.5 2125.1 5108.01 2119.22C5125.87 2108.24 5140.89 2093.21 5151.87 2075.36L5190.46 2097.73C5168.78 2135.22 5138.2 2166.79 5101.44 2189.68C5084.36 2200.28 5064.81 2206.23 5044.72 2206.93Z" fill="#263238"/>
<path d="M5007.44 2195.23C4987.71 2180.61 4976.89 2153.57 4976.89 2117.9C4978.29 2074.55 4990.4 2032.21 5012.12 1994.67L5050.86 2017.03C5040.65 2035.4 5035.04 2055.96 5034.48 2076.97C5033.93 2084.91 5035.12 2092.87 5037.97 2100.29C5040.82 2107.72 5045.27 2114.43 5051 2119.95L5007.44 2195.23Z" fill="#263238"/>
<path d="M5161.81 2007.39C5160.72 2027.25 5154.96 2046.57 5145 2063.79C5135.05 2081.01 5121.17 2095.64 5104.51 2106.5C5099.03 2111.37 5092.16 2114.39 5084.87 2115.13C5077.58 2115.88 5070.24 2114.32 5063.88 2110.67C5057.53 2107.01 5052.49 2101.45 5049.47 2094.78C5046.45 2088.1 5045.6 2080.64 5047.06 2073.46C5048.22 2053.58 5054.03 2034.25 5064 2017.01C5073.98 1999.78 5087.85 1985.12 5104.51 1974.2C5110 1969.37 5116.87 1966.39 5124.15 1965.68C5131.43 1964.96 5138.75 1966.55 5145.08 1970.21C5151.4 1973.88 5156.42 1979.44 5159.43 1986.11C5162.43 1992.77 5163.26 2000.22 5161.81 2007.39Z" fill="#263238"/>
<path d="M5018.4 1983.7C5040.01 1946.16 5070.6 1914.56 5107.43 1891.75C5124.47 1881.15 5143.95 1875.11 5164 1874.21C5172.84 1874.09 5181.61 1875.83 5189.73 1879.33L5145.88 1954.76C5141.52 1953.18 5136.92 1952.39 5132.28 1952.42C5121.09 1952.79 5110.19 1956.12 5100.71 1962.07C5082.73 1972.89 5067.67 1987.94 5056.85 2005.92L5018.4 1983.7Z" fill="#263238"/>
<path d="M4981.71 2317.29L5012.56 2299.61C5018.84 2295.95 5023.96 2298.88 5023.96 2306.18V2341.71C5023.75 2345.68 5022.6 2349.55 5020.62 2353C5018.64 2356.46 5015.88 2359.4 5012.56 2361.59L4981.71 2379.28C4975.43 2382.93 4970.31 2380.01 4970.31 2372.7V2337.18C4970.52 2333.2 4971.66 2329.33 4973.64 2325.88C4975.62 2322.43 4978.39 2319.49 4981.71 2317.29Z" fill="#263238"/>
<path d="M5196.31 2193.48L5227.15 2175.64C5228.29 2174.79 5229.65 2174.29 5231.06 2174.21C5232.48 2174.13 5233.88 2174.47 5235.1 2175.19C5236.32 2175.91 5237.3 2176.98 5237.92 2178.26C5238.53 2179.53 5238.75 2180.96 5238.56 2182.37V2217.6C5238.34 2221.55 5237.2 2225.4 5235.22 2228.83C5233.24 2232.26 5230.47 2235.17 5227.15 2237.33L5196.31 2255.17C5195.21 2256.08 5193.85 2256.64 5192.42 2256.76C5190.99 2256.88 5189.56 2256.57 5188.32 2255.85C5187.07 2255.13 5186.08 2254.05 5185.47 2252.75C5184.86 2251.46 5184.67 2250 5184.91 2248.59V2213.21C5185.12 2209.26 5186.26 2205.41 5188.24 2201.98C5190.23 2198.55 5192.99 2195.64 5196.31 2193.48Z" fill="#263238"/>
<path d="M4981.71 1822.03L5012.56 1804.19C5013.66 1803.27 5015.02 1802.72 5016.45 1802.6C5017.87 1802.47 5019.31 1802.79 5020.55 1803.51C5021.79 1804.23 5022.78 1805.31 5023.39 1806.6C5024 1807.9 5024.2 1809.36 5023.96 1810.77V1846.29C5023.75 1850.27 5022.6 1854.14 5020.62 1857.59C5018.64 1861.04 5015.88 1863.98 5012.56 1866.17L4981.71 1883.86C4975.43 1887.66 4970.31 1884.59 4970.31 1877.28V1841.76C4970.52 1837.81 4971.66 1833.96 4973.65 1830.53C4975.63 1827.1 4978.39 1824.18 4981.71 1822.03Z" fill="#263238"/>
<path d="M5196.31 1698.06L5227.15 1680.37C5233.44 1676.72 5238.56 1679.64 5238.56 1686.95V1722.47C5238.34 1726.45 5237.2 1730.32 5235.22 1733.77C5233.24 1737.22 5230.48 1740.16 5227.15 1742.36L5196.31 1760.04C5190.02 1763.7 5184.91 1760.77 5184.91 1753.46V1717.94C5185.12 1713.97 5186.26 1710.1 5188.24 1706.64C5190.22 1703.19 5192.99 1700.25 5196.31 1698.06Z" fill="#263238"/>
<path d="M4873.1 1935.9V2414.07C4872.46 2425.99 4869.01 2437.59 4863.04 2447.93C4857.07 2458.27 4848.75 2467.05 4838.74 2473.56L4263.66 2805.55C4244.65 2816.51 4229.31 2807.59 4229.31 2785.81V2307.5C4229.95 2295.6 4233.39 2284.02 4239.36 2273.7C4245.33 2263.39 4253.66 2254.63 4263.66 2248.15L4838.74 1916.02C4857.6 1905.2 4873.1 1913.97 4873.1 1935.9Z" fill="#F0F0F0"/>
<path d="M4295.53 2414.07C4321.94 2396.86 4343.91 2373.65 4359.66 2346.35C4375.41 2319.04 4384.49 2288.4 4386.16 2256.92C4386.16 2225.05 4373.88 2203.71 4354.29 2195.67L4263.66 2248.15C4253.66 2254.63 4245.33 2263.39 4239.36 2273.7C4233.39 2284.02 4229.95 2295.6 4229.31 2307.5V2418.89C4245.82 2429.86 4269.36 2429.13 4295.53 2414.07Z" fill="#3155E7"/>
<path opacity="0.7" d="M4295.53 2414.07C4321.94 2396.86 4343.91 2373.65 4359.66 2346.35C4375.41 2319.04 4384.49 2288.4 4386.16 2256.92C4386.16 2225.05 4373.88 2203.71 4354.29 2195.67L4263.66 2248.15C4253.66 2254.63 4245.33 2263.39 4239.36 2273.7C4233.39 2284.02 4229.95 2295.6 4229.31 2307.5V2418.89C4245.82 2429.86 4269.36 2429.13 4295.53 2414.07Z" fill="white"/>
<path d="M4781.15 2134.57C4779.79 2132.05 4777.73 2129.99 4775.22 2128.63C4772.71 2127.27 4769.85 2126.68 4767 2126.93C4764.16 2127.18 4761.45 2128.26 4759.21 2130.03C4756.97 2131.8 4755.29 2134.19 4754.4 2136.9L4604.85 2453.68L4473.29 2374.45C4467.34 2370.88 4460.24 2369.8 4453.5 2371.45C4446.77 2373.09 4440.96 2377.32 4437.32 2383.22L4229.01 2732.46V2785.81C4229.01 2807.59 4244.36 2816.51 4263.37 2805.55L4838.45 2473.57C4848.4 2467.02 4856.68 2458.25 4862.64 2447.95C4868.6 2437.65 4872.08 2426.1 4872.81 2414.21V2262.91L4781.15 2134.57Z" fill="#3155E7"/>
<path d="M4336.6 2267.88L4282.95 2298.88V2360.86" stroke="white" stroke-linecap="round" stroke-linejoin="round"/>
<path d="M4282.95 2670.47V2732.46L4336.6 2701.47" stroke="white" stroke-linecap="round" stroke-linejoin="round"/>
<path d="M4765.8 2020.1L4819.45 1989.11V2051.09" stroke="white" stroke-linecap="round" stroke-linejoin="round"/>
<path d="M4819.45 2360.86V2422.69L4765.8 2453.68" stroke="white" stroke-linecap="round" stroke-linejoin="round"/>
<path d="M5168.1 2069.66C5178.21 2051.26 5183.77 2030.71 5184.32 2009.72C5184.88 2001.79 5183.69 1993.83 5180.84 1986.4C5177.98 1978.98 5173.53 1972.27 5167.8 1966.75L5211.66 1891.46C5231.39 1906.08 5242.21 1933.12 5242.21 1968.79C5240.77 2012.12 5228.72 2054.44 5207.13 2092.03L5168.1 2069.66Z" fill="#455A64"/>
<path d="M5054.66 2212.77C5045.83 2212.88 5037.08 2211.19 5028.93 2207.8L5072.78 2132.37C5077.16 2133.88 5081.75 2134.67 5086.38 2134.71C5097.63 2134.41 5108.59 2131.07 5118.1 2125.06C5135.95 2114.08 5150.98 2099.06 5161.96 2081.21L5200.69 2103.57C5179.09 2141.12 5148.5 2172.72 5111.67 2195.52C5094.47 2206.1 5074.83 2212.04 5054.66 2212.77Z" fill="#455A64"/>
<path d="M5017.38 2201.23C4997.65 2186.61 4986.97 2159.42 4986.97 2123.75C4988.36 2080.46 5000.41 2038.18 5022.06 2000.66L5060.8 2022.88C5050.6 2041.25 5044.98 2061.81 5044.42 2082.82C5043.87 2090.75 5045.06 2098.71 5047.91 2106.14C5050.77 2113.57 5055.21 2120.28 5060.94 2125.79L5017.38 2201.23Z" fill="#455A64"/>
<path d="M5171.75 2012.94C5170.66 2032.82 5164.9 2052.17 5154.94 2069.41C5144.99 2086.65 5131.12 2101.31 5114.45 2112.2C5107.48 2118.3 5098.39 2121.39 5089.15 2120.78C5079.91 2120.18 5071.29 2115.94 5065.18 2108.98C5061.7 2105.04 5059.17 2100.36 5057.78 2095.3C5056.38 2090.23 5056.17 2084.91 5057.14 2079.75C5057.84 2059.81 5063.63 2040.39 5073.95 2023.32C5083.51 2005.81 5097.46 1991.1 5114.45 1980.63C5119.93 1975.83 5126.78 1972.86 5134.04 1972.14C5141.3 1971.43 5148.6 1973 5154.92 1976.64C5161.24 1980.29 5166.26 1985.82 5169.28 1992.46C5172.3 1999.1 5173.16 2006.52 5171.75 2013.67V2012.94Z" fill="#455A64"/>
<path d="M5028.78 1989.11C5050.39 1951.57 5080.98 1919.97 5117.81 1897.16C5134.88 1886.64 5154.35 1880.65 5174.38 1879.77C5183.16 1879.65 5191.87 1881.34 5199.96 1884.74L5156.11 1960.17C5151.73 1958.71 5147.13 1957.97 5142.51 1957.98C5131.34 1958.32 5120.45 1961.6 5110.94 1967.48C5093.09 1978.46 5078.06 1993.48 5067.08 2011.33L5028.78 1989.11Z" fill="#455A64"/>
<path d="M4991.8 2323.29L5022.5 2305.45C5023.6 2304.54 5024.96 2303.98 5026.39 2303.86C5027.82 2303.74 5029.25 2304.06 5030.49 2304.77C5031.73 2305.49 5032.72 2306.57 5033.33 2307.87C5033.94 2309.17 5034.14 2310.62 5033.9 2312.03V2347.56C5033.69 2351.53 5032.54 2355.4 5030.56 2358.85C5028.58 2362.31 5025.82 2365.25 5022.5 2367.44L4991.8 2385.12C4990.7 2386.04 4989.34 2386.6 4987.91 2386.72C4986.48 2386.84 4985.05 2386.52 4983.81 2385.81C4982.56 2385.09 4981.57 2384.01 4980.96 2382.71C4980.35 2381.41 4980.15 2379.96 4980.4 2378.55V2343.02C4980.61 2339.07 4981.75 2335.22 4983.73 2331.79C4985.71 2328.36 4988.48 2325.45 4991.8 2323.29Z" fill="#455A64"/>
<path d="M5206.4 2199.32L5237.09 2181.64C5238.2 2180.72 5239.55 2180.16 5240.98 2180.04C5242.41 2179.92 5243.84 2180.24 5245.09 2180.95C5246.33 2181.67 5247.32 2182.75 5247.93 2184.05C5248.54 2185.35 5248.74 2186.8 5248.5 2188.21V2223.74C5248.28 2227.69 5247.14 2231.54 5245.16 2234.97C5243.18 2238.4 5240.41 2241.31 5237.09 2243.47L5206.4 2261.31C5205.28 2262.19 5203.92 2262.73 5202.49 2262.84C5201.07 2262.95 5199.64 2262.63 5198.4 2261.92C5197.16 2261.21 5196.16 2260.15 5195.52 2258.87C5194.89 2257.59 5194.65 2256.14 5194.85 2254.73V2219.21C5195.05 2215.21 5196.21 2211.33 5198.22 2207.87C5200.22 2204.41 5203.03 2201.48 5206.4 2199.32Z" fill="#455A64"/>
<path d="M4991.8 1827.87L5022.5 1810.18C5023.6 1809.27 5024.96 1808.71 5026.39 1808.59C5027.82 1808.47 5029.25 1808.79 5030.49 1809.5C5031.73 1810.22 5032.72 1811.3 5033.33 1812.6C5033.94 1813.89 5034.14 1815.35 5033.9 1816.76V1852.14C5033.69 1856.09 5032.54 1859.94 5030.56 1863.37C5028.58 1866.8 5025.82 1869.71 5022.5 1871.87L4991.8 1889.71C4990.7 1890.62 4989.34 1891.18 4987.91 1891.3C4986.48 1891.43 4985.05 1891.11 4983.81 1890.39C4982.56 1889.67 4981.57 1888.59 4980.96 1887.3C4980.35 1886 4980.15 1884.54 4980.4 1883.13V1847.75C4980.61 1843.78 4981.75 1839.91 4983.73 1836.46C4985.71 1833 4988.47 1830.06 4991.8 1827.87Z" fill="#455A64"/>
<path d="M5206.4 1704.06L5237.09 1686.22C5243.38 1682.57 5248.5 1685.49 5248.5 1692.8V1728.32C5248.28 1732.3 5247.14 1736.17 5245.16 1739.62C5243.18 1743.07 5240.42 1746.01 5237.09 1748.2L5206.4 1765.89C5199.96 1769.55 5194.85 1766.62 5194.85 1759.31V1723.79C5195.06 1719.82 5196.22 1715.96 5198.23 1712.52C5200.24 1709.09 5203.04 1706.19 5206.4 1704.06Z" fill="#455A64"/>
<path d="M4989.17 2777.63H5033.02C5043.59 2777.59 5054.05 2779.64 5063.82 2783.65C5073.6 2787.67 5082.48 2793.57 5089.96 2801.03C5097.44 2808.49 5103.38 2817.35 5107.43 2827.1C5111.48 2836.86 5113.57 2847.32 5113.57 2857.88V2860.81L5104.07 3155.22L4989.17 2777.63Z" fill="#F28F8F"/>
<path d="M4640.67 2911.97C4676.53 2911.97 4710.92 2897.72 4736.28 2872.37C4761.64 2847.01 4775.89 2812.61 4775.89 2776.75V2374.16C4740.02 2374.16 4705.63 2388.41 4680.27 2413.77C4654.91 2439.12 4640.67 2473.52 4640.67 2509.38V2911.97Z" fill="#263238"/>
<path d="M4867.48 4408.37L4828.71 4528.11L4911.05 4554.77L4949.82 4435.02L4867.48 4408.37Z" fill="#FFA8A7"/>
<path d="M4928.06 4502.74C4927.47 4512.57 4929.98 4522.33 4935.23 4530.66C4948.42 4552.39 4963.85 4572.67 4981.27 4591.18C5005.98 4617.64 5042.82 4648.92 5068.98 4672.02C5083.6 4684.88 5083.6 4704.18 5063.28 4711.05C5024.03 4720.6 4982.62 4714.79 4947.5 4694.82C4921.34 4680.21 4883.91 4615.59 4861.99 4605.8C4836.99 4594.4 4822.81 4588.7 4814.33 4576.56C4807.89 4569.98 4803.88 4561.4 4802.95 4552.24C4802.02 4543.08 4804.23 4533.87 4809.22 4526.13C4821.06 4504.2 4838.45 4470.14 4846.2 4473.94L4843.86 4480.96C4849.71 4498.94 4898.68 4519.84 4923.82 4514.87L4928.06 4502.74Z" fill="#37474F"/>
<path d="M4844.15 4481.54C4863.6 4487.54 4874.85 4503.62 4900 4498.5L4928.06 4502.74C4927.47 4512.57 4929.98 4522.33 4935.23 4530.66C4948.42 4552.39 4963.85 4572.67 4981.27 4591.18C4993.26 4604.04 5008.17 4618.08 5023.37 4631.67C5035.51 4650.68 4995.01 4656.23 4972.65 4649.8C4948.06 4641.11 4926.87 4624.83 4912.13 4603.31C4895.9 4581.97 4851.75 4532.41 4845.18 4515.6C4840.46 4504.8 4840.1 4492.6 4844.15 4481.54Z" fill="#FFA8A7"/>
<path d="M4595.2 3263.54C4595.2 3152.88 4616.4 3071.46 4640.67 2901.74C4648.85 2844.14 4671.22 2815.2 4711.86 2799.41C4711.86 2799.41 4823.4 2845.31 4823.4 2927.76C4823.4 3010.2 4733.05 3052.6 4733.05 3052.6L4714.93 3194.98L4639.93 3329.62C4602.51 3317.78 4594.47 3297.46 4595.2 3263.54Z" fill="#FFA8A7"/>
<path d="M4826.03 4603.75H4741.97V4726.11H4826.03V4603.75Z" fill="#FFA8A7"/>
<path d="M4678.67 3356.37C4645.34 3499.19 4677.8 3691.57 4689.2 3811.73C4700.31 3928.68 4714.05 4065.21 4714.05 4065.21C4714.05 4065.21 4678.23 4188.88 4679.99 4284.49C4682.18 4385.21 4740.66 4629.63 4740.66 4629.63C4753.51 4637.92 4768.48 4642.33 4783.78 4642.33C4799.08 4642.33 4814.05 4637.92 4826.9 4629.63C4826.9 4629.63 4841.52 4424.97 4856.14 4309.05C4870.76 4187.86 4875.29 4099.42 4887.86 4028.52C4903.5 3940.81 4924.26 3642.01 4924.26 3642.01L4975.43 3937.3C4948.5 3981.74 4927.52 4029.51 4913.01 4079.39C4894.44 4151.17 4854.53 4436.23 4854.53 4436.23C4879.64 4458.58 4911.85 4471.32 4945.46 4472.19C4945.46 4472.19 5125.56 4044.89 5149.97 4001.04C5176.28 3955.57 5144.12 3486.62 5118.98 3348.47L4678.67 3356.37Z" fill="#3155E7"/>
<path opacity="0.3" d="M4678.67 3356.37C4645.34 3499.19 4677.8 3691.57 4689.2 3811.73C4700.31 3928.68 4714.05 4065.21 4714.05 4065.21C4714.05 4065.21 4678.23 4188.88 4679.99 4284.49C4682.18 4385.21 4740.66 4629.63 4740.66 4629.63C4753.51 4637.92 4768.48 4642.33 4783.78 4642.33C4799.08 4642.33 4814.05 4637.92 4826.9 4629.63C4826.9 4629.63 4841.52 4424.97 4856.14 4309.05C4870.76 4187.86 4875.29 4099.42 4887.86 4028.52C4903.5 3940.81 4924.26 3642.01 4924.26 3642.01L4975.43 3937.3C4948.5 3981.74 4927.52 4029.51 4913.01 4079.39C4894.44 4151.17 4854.53 4436.23 4854.53 4436.23C4879.64 4458.58 4911.85 4471.32 4945.46 4472.19C4945.46 4472.19 5125.56 4044.89 5149.97 4001.04C5176.28 3955.57 5144.12 3486.62 5118.98 3348.47L4678.67 3356.37Z" fill="black"/>
<path d="M4832.6 2779.67C4832.6 2779.67 4726.04 2792.98 4711.86 2799.26C4823.39 2877.76 4733.05 3052.45 4733.05 3052.45L4787.14 3200.97C4741.68 3250.38 4703.38 3280.06 4678.82 3355.93C4709.96 3392.04 4905.84 3485.16 5118.39 3348.33C5112.28 3292.6 5103.3 3237.22 5091.5 3182.41C5122.05 3036.23 5129.5 2971.76 5120.73 2937.41C5095.73 2840.78 5038.58 2779.09 4972.94 2775.43L4832.6 2779.67Z" fill="#3155E7"/>
<path opacity="0.5" d="M4832.6 2779.67C4832.6 2779.67 4726.04 2792.98 4711.86 2799.26C4823.39 2877.76 4733.05 3052.45 4733.05 3052.45L4787.14 3200.97C4741.68 3250.38 4703.38 3280.06 4678.82 3355.93C4709.96 3392.04 4905.84 3485.16 5118.39 3348.33C5112.28 3292.6 5103.3 3237.22 5091.5 3182.41C5122.05 3036.23 5129.5 2971.76 5120.73 2937.41C5095.73 2840.78 5038.58 2779.09 4972.94 2775.43L4832.6 2779.67Z" fill="white"/>
<path d="M4826.03 4684.59V4672.6C4836.4 4712.38 4857.13 4748.7 4886.11 4777.86C4912.71 4801.98 4948.82 4829.9 4958.03 4856.94C4967.24 4883.99 4916.08 4895.97 4880.99 4892.76C4847.72 4888.65 4817.07 4872.6 4794.74 4847.59C4772.96 4822.59 4773.25 4805.49 4763.17 4791.74C4753.08 4778 4729.55 4762.51 4723.99 4746.72C4722.36 4731.92 4724.01 4716.95 4728.81 4702.86C4732.76 4688.25 4737 4671.58 4741.97 4673.63V4682.84C4753.91 4692.4 4768.78 4697.56 4784.07 4697.46C4796.35 4696.43 4826.17 4693.95 4826.03 4684.59Z" fill="#37474F"/>
<path d="M4741.97 4681.81C4748.11 4688.54 4764.92 4683.13 4784.07 4683.86C4796.35 4683.86 4813.31 4688.68 4813.31 4679.33L4825.3 4672.6C4835.73 4712.36 4856.45 4748.66 4885.38 4777.86C4891.81 4783.56 4898.68 4789.55 4905.55 4795.84C4920.17 4811.48 4915.64 4825.07 4882.6 4828C4849.56 4830.92 4820.32 4810.89 4794.89 4780.05C4773.93 4749.21 4756.19 4716.29 4741.97 4681.81Z" fill="#FFA8A7"/>
<path d="M4875.58 2334.54H4953.94C4997.09 2334.54 5038.47 2351.69 5068.99 2382.2C5099.5 2412.71 5116.64 2454.1 5116.64 2497.25V2516.69C5116.6 2567.47 5096.41 2616.15 5060.51 2652.06C5024.6 2687.96 4975.92 2708.15 4925.14 2708.19H4905.26C4854.2 2708.19 4805.23 2687.91 4769.12 2651.8C4733.02 2615.7 4712.73 2566.73 4712.73 2515.67V2496.81C4712.85 2453.71 4730.06 2412.41 4760.59 2381.99C4791.13 2351.57 4832.48 2334.51 4875.58 2334.54Z" fill="#263238"/>
<path d="M5050.27 2415.82C5071.61 2428.4 5098.07 2482.04 5095.44 2594.46C5093.25 2689.77 5062.26 2713.31 5046.76 2720.03C5031.27 2726.76 5001.45 2722.66 4972.36 2717.84V2775.14C4972.36 2775.14 5012.56 2821.78 5009.93 2848.23C5007.29 2874.69 4951.45 2880.69 4914.32 2855.1C4887.12 2834.01 4863.69 2808.45 4845.03 2779.53V2647.96C4845.03 2647.96 4827.93 2664.63 4798.98 2639.34C4775.01 2618.29 4766.97 2583.06 4785.53 2564.05C4793.61 2556.68 4804.26 2552.76 4815.19 2553.14C4826.12 2553.53 4836.47 2558.18 4844.01 2566.1C4847.05 2569.4 4849.56 2573.15 4851.46 2577.21C4889.59 2575.65 4926.72 2564.6 4959.49 2545.05C4983.77 2532.24 5004.67 2513.84 5020.45 2491.37C5036.23 2468.91 5046.45 2443.01 5050.27 2415.82Z" fill="#FFA8A7"/>
<path d="M4989.17 2570.48C4989.29 2572.08 4989.09 2573.68 4988.59 2575.2C4988.09 2576.72 4987.29 2578.12 4986.24 2579.33C4985.2 2580.54 4983.92 2581.53 4982.49 2582.24C4981.06 2582.96 4979.51 2583.38 4977.91 2583.5C4975.46 2583.69 4973.02 2583.15 4970.87 2581.96C4968.73 2580.76 4966.99 2578.96 4965.87 2576.77C4964.75 2574.59 4964.31 2572.12 4964.59 2569.68C4964.87 2567.24 4965.87 2564.94 4967.46 2563.07C4969.04 2561.2 4971.15 2559.84 4973.51 2559.16C4975.87 2558.49 4978.37 2558.52 4980.71 2559.27C4983.05 2560.02 4985.11 2561.44 4986.64 2563.36C4988.17 2565.27 4989.1 2567.6 4989.31 2570.05L4989.17 2570.48Z" fill="#263238"/>
<path d="M4992.24 2651.32L5020.01 2660.1C5018.96 2663.81 5016.47 2666.96 5013.1 2668.85C5009.73 2670.74 5005.75 2671.22 5002.03 2670.18C4998.31 2669.1 4995.17 2666.58 4993.31 2663.18C4991.44 2659.78 4991.01 2655.78 4992.09 2652.06L4992.24 2651.32Z" fill="#F28F8F"/>
<path d="M5087.26 2533.65L5062.99 2516.84C5065.13 2513.63 5068.46 2511.4 5072.23 2510.64C5076.01 2509.87 5079.94 2510.63 5083.16 2512.74C5086.39 2515.04 5088.61 2518.49 5089.37 2522.38C5090.13 2526.27 5089.38 2530.3 5087.26 2533.65Z" fill="#263238"/>
<path d="M5081.7 2561.86C5081.73 2564.21 5081.06 2566.52 5079.79 2568.49C5078.51 2570.47 5076.68 2572.03 5074.53 2572.97C5072.37 2573.92 5069.99 2574.2 5067.67 2573.8C5065.36 2573.4 5063.21 2572.33 5061.5 2570.72C5059.78 2569.11 5058.58 2567.03 5058.05 2564.74C5057.51 2562.45 5057.65 2560.05 5058.47 2557.84C5059.28 2555.64 5060.73 2553.72 5062.62 2552.33C5064.52 2550.94 5066.78 2550.13 5069.13 2550.02C5072.36 2549.94 5075.5 2551.14 5077.85 2553.36C5080.2 2555.57 5081.59 2558.63 5081.7 2561.86Z" fill="#263238"/>
<path d="M5025.13 2554.99L5027.03 2627.06L5065.04 2615.36L5025.13 2554.99Z" fill="#F28F8F"/>
<path d="M4972.36 2717.84C4941.66 2713.89 4878.65 2695.76 4868.71 2670.77C4872.67 2683.42 4880.42 2694.55 4890.93 2702.63C4909.79 2718.72 4972.36 2736.99 4972.36 2736.99V2717.84Z" fill="#F28F8F"/>
<path d="M4755.27 3113.12L4839.18 3226.85L4787.14 3200.97L4755.27 3113.12Z" fill="#3155E7"/>
<path d="M4924.12 3641.28L4938.73 3560.88C4981.55 3548.88 5023.3 3533.38 5063.57 3514.54C5063.57 3514.54 5007.73 3564.09 4965.63 3577.98L4944.87 3670.08L4955.25 3817.72L4924.12 3641.28Z" fill="#3155E7"/>
<path opacity="0.4" d="M4924.12 3641.28L4938.73 3560.88C4981.55 3548.88 5023.3 3533.38 5063.57 3514.54C5063.57 3514.54 5007.73 3564.09 4965.63 3577.98L4944.87 3670.08L4955.25 3817.72L4924.12 3641.28Z" fill="black"/>
<path d="M4714.93 3194.83C4714.93 3194.83 5025.42 3149.81 5045.16 3142.65C5064.89 3135.48 5097.34 3100.69 5127.75 3097.92C5171.6 3094.11 5190.75 3083.3 5199.09 3087.97C5207.42 3092.65 5202.6 3118.09 5162.83 3134.75C5158.54 3135.72 5154.76 3138.25 5152.21 3141.84C5149.66 3145.43 5148.54 3149.84 5149.05 3154.21C5149.55 3158.58 5151.66 3162.61 5154.96 3165.52C5158.26 3168.44 5162.52 3170.02 5166.93 3169.98C5171.94 3169.96 5176.91 3168.97 5181.54 3167.06L5197.04 3159.9L5220.14 3149.08C5224.96 3163.3 5224.96 3178.71 5220.14 3192.93C5214.82 3204.88 5207.09 3215.59 5197.43 3224.4C5187.77 3233.21 5176.39 3239.91 5164 3244.1C5137.69 3251.85 5059.19 3226.85 5036.97 3232.26C5014.75 3237.67 4993.11 3246 4901.02 3268.8C4820.47 3288.83 4721.65 3323.18 4639.5 3329.03L4714.93 3194.83Z" fill="#FFA8A7"/>
<path d="M5866.27 2662.58L5757.8 2725.29C5756.21 2726.34 5754.88 2727.75 5753.91 2729.4C5752.95 2731.04 5752.38 2732.89 5752.25 2734.8V2992.37C5752.25 2995.88 5754.73 2997.34 5757.8 2995.59L5866.27 2932.87C5867.86 2931.82 5869.19 2930.42 5870.16 2928.77C5871.12 2927.12 5871.69 2925.28 5871.82 2923.37V2665.8C5871.53 2662.29 5869.05 2660.83 5866.27 2662.58Z" fill="#3155E7"/>
<path d="M5757.51 2725.29L5865.98 2662.58C5866.44 2662.21 5867 2661.98 5867.58 2661.9C5868.17 2661.81 5868.77 2661.89 5869.32 2662.11C5869.87 2662.33 5870.35 2662.7 5870.71 2663.16C5871.07 2663.63 5871.31 2664.19 5871.38 2664.77C5871.16 2663.06 5870.59 2661.42 5869.71 2659.94C5868.83 2658.45 5867.66 2657.16 5866.27 2656.15L5861.74 2653.52C5860.01 2652.66 5858.11 2652.21 5856.18 2652.21C5854.25 2652.21 5852.35 2652.66 5850.63 2653.52L5742.16 2716.23C5740.5 2717.21 5739.13 2718.63 5738.21 2720.32L5753.85 2729.39C5754.7 2727.73 5755.96 2726.33 5757.51 2725.29Z" fill="#3155E7"/>
<path opacity="0.5" d="M5757.51 2725.29L5865.98 2662.58C5866.44 2662.21 5867 2661.98 5867.58 2661.9C5868.17 2661.81 5868.77 2661.89 5869.32 2662.11C5869.87 2662.33 5870.35 2662.7 5870.71 2663.16C5871.07 2663.63 5871.31 2664.19 5871.38 2664.77C5871.16 2663.06 5870.59 2661.42 5869.71 2659.94C5868.83 2658.45 5867.66 2657.16 5866.27 2656.15L5861.74 2653.52C5860.01 2652.66 5858.11 2652.21 5856.18 2652.21C5854.25 2652.21 5852.35 2652.66 5850.63 2653.52L5742.16 2716.23C5740.5 2717.21 5739.13 2718.63 5738.21 2720.32L5753.85 2729.39C5754.7 2727.73 5755.96 2726.33 5757.51 2725.29Z" fill="white"/>
<path d="M5736.31 2983.16C5736.39 2985.1 5736.93 2986.99 5737.9 2988.67C5738.87 2990.35 5740.23 2991.77 5741.87 2992.81L5746.4 2995.44C5747.98 2996.16 5749.7 2996.54 5751.44 2996.54C5753.18 2996.54 5754.9 2996.16 5756.48 2995.44C5753.85 2996.46 5751.95 2995.44 5751.95 2991.79V2734.8C5751.97 2732.88 5752.53 2731 5753.56 2729.39L5737.92 2720.32C5736.9 2722 5736.35 2723.92 5736.31 2725.88V2983.16Z" fill="#3155E7"/>
<path opacity="0.2" d="M5736.31 2983.16C5736.39 2985.1 5736.93 2986.99 5737.9 2988.67C5738.87 2990.35 5740.23 2991.77 5741.87 2992.81L5746.4 2995.44C5747.98 2996.16 5749.7 2996.54 5751.44 2996.54C5753.18 2996.54 5754.9 2996.16 5756.48 2995.44C5753.85 2996.46 5751.95 2995.44 5751.95 2991.79V2734.8C5751.97 2732.88 5752.53 2731 5753.56 2729.39L5737.92 2720.32C5736.9 2722 5736.35 2723.92 5736.31 2725.88V2983.16Z" fill="black"/>
<path d="M5776.22 2730.56C5773.54 2732.39 5771.33 2734.83 5769.75 2737.67C5768.18 2740.51 5767.29 2743.68 5767.16 2746.93V2766.52C5767.16 2772.66 5771.25 2775.29 5776.22 2772.36C5778.9 2770.53 5781.11 2768.09 5782.69 2765.25C5784.26 2762.41 5785.15 2759.24 5785.28 2755.99V2736.4C5785.28 2730.26 5781.19 2727.63 5776.22 2730.56Z" fill="#3155E7"/>
<path opacity="0.2" d="M5776.22 2730.56C5773.54 2732.39 5771.33 2734.83 5769.75 2737.67C5768.18 2740.51 5767.29 2743.68 5767.16 2746.93V2766.52C5767.16 2772.66 5771.25 2775.29 5776.22 2772.36C5778.9 2770.53 5781.11 2768.09 5782.69 2765.25C5784.26 2762.41 5785.15 2759.24 5785.28 2755.99V2736.4C5785.28 2730.26 5781.19 2727.63 5776.22 2730.56Z" fill="black"/>
<path d="M5776.22 2737.87C5775.06 2738.58 5774.1 2739.57 5773.41 2740.74C5772.72 2741.91 5772.33 2743.23 5772.27 2744.59C5772.27 2747.08 5774.03 2748.1 5776.22 2746.93C5777.38 2746.22 5778.34 2745.23 5779.03 2744.06C5779.72 2742.88 5780.11 2741.56 5780.17 2740.2C5780.17 2737.72 5778.56 2736.7 5776.22 2737.87Z" fill="#3155E7"/>
<path opacity="0.5" d="M5776.22 2737.87C5775.06 2738.58 5774.1 2739.57 5773.41 2740.74C5772.72 2741.91 5772.33 2743.23 5772.27 2744.59C5772.27 2747.08 5774.03 2748.1 5776.22 2746.93C5777.38 2746.22 5778.34 2745.23 5779.03 2744.06C5779.72 2742.88 5780.11 2741.56 5780.17 2740.2C5780.17 2737.72 5778.56 2736.7 5776.22 2737.87Z" fill="black"/>
<path d="M5776.22 2753.21C5775.06 2753.93 5774.1 2754.91 5773.41 2756.09C5772.72 2757.26 5772.33 2758.58 5772.27 2759.94C5772.27 2762.42 5774.03 2763.45 5776.22 2762.28C5777.38 2761.53 5778.34 2760.52 5779.03 2759.32C5779.72 2758.13 5780.11 2756.78 5780.17 2755.41C5780.17 2753.07 5778.56 2752.05 5776.22 2753.21Z" fill="#3155E7"/>
<path opacity="0.5" d="M5776.22 2753.21C5775.06 2753.93 5774.1 2754.91 5773.41 2756.09C5772.72 2757.26 5772.33 2758.58 5772.27 2759.94C5772.27 2762.42 5774.03 2763.45 5776.22 2762.28C5777.38 2761.53 5778.34 2760.52 5779.03 2759.32C5779.72 2758.13 5780.11 2756.78 5780.17 2755.41C5780.17 2753.07 5778.56 2752.05 5776.22 2753.21Z" fill="black"/>
<path d="M5162.83 3134.75L5727.98 2871.62L5740.4 2906.85L5175.26 3169.98C5143.39 3183.87 5133.01 3148.79 5162.83 3134.75Z" fill="#455A64"/>
<path d="M5751.37 2851.45L5759.7 2856.42C5763.61 2858.36 5767.91 2859.38 5772.27 2859.38C5776.63 2859.38 5780.94 2858.36 5784.84 2856.42L5819.05 2836.69C5826.07 2832.59 5831.77 2834.93 5831.77 2841.8C5831.33 2845.85 5829.96 2849.75 5827.75 2853.18C5825.54 2856.6 5822.56 2859.46 5819.05 2861.54L5784.99 2881.13C5781.08 2883.14 5776.74 2884.19 5772.35 2884.19C5767.95 2884.19 5763.61 2883.14 5759.7 2881.13L5751.37 2876.15C5747.9 2874.01 5744.97 2871.11 5742.79 2867.66C5740.62 2864.22 5739.25 2860.32 5738.8 2856.27C5738.8 2849.55 5744.5 2847.36 5751.37 2851.45Z" fill="#455A64"/>
<path d="M5751.37 2898.52L5759.7 2903.35C5763.59 2905.36 5767.9 2906.41 5772.27 2906.41C5776.65 2906.41 5780.96 2905.36 5784.84 2903.35L5819.05 2883.61C5826.07 2879.66 5831.77 2881.86 5831.77 2888.73C5831.36 2892.79 5829.99 2896.69 5827.78 2900.12C5825.57 2903.55 5822.58 2906.41 5819.05 2908.46L5784.99 2928.2C5781.04 2930.09 5776.72 2931.07 5772.35 2931.07C5767.97 2931.07 5763.65 2930.09 5759.7 2928.2L5751.37 2923.37C5747.9 2921.23 5744.97 2918.32 5742.79 2914.88C5740.62 2911.44 5739.25 2907.54 5738.8 2903.49C5738.8 2896.62 5744.5 2894.43 5751.37 2898.52Z" fill="#455A64"/>
<path d="M5725.93 2852.62V2905.39L5755.17 2922.06V2853.5L5740.55 2844.73C5739.15 2843.7 5737.48 2843.1 5735.75 2842.98C5734.01 2842.87 5732.28 2843.24 5730.76 2844.07C5729.23 2844.89 5727.96 2846.13 5727.11 2847.65C5726.26 2849.16 5725.85 2850.88 5725.93 2852.62Z" fill="#455A64"/>
</svg>
